<svg width="93" height="95" viewBox="0 0 93 95" fill="none" xmlns="http://www.w3.org/2000/svg">
<path d="M18.912 0.639992C20.5333 0.639992 23.6907 2.38933 28.384 5.88799C33.1627 9.30133 35.552 11.8613 35.552 13.568C35.552 16.5547 36.5333 21.4613 38.496 28.288C40.4587 35.1147 42.72 41.3013 45.28 46.848C47.84 43.8613 52.1493 38.3573 58.208 30.336C64.352 22.2293 69.5147 15.8293 73.696 11.136C77.8773 6.44266 80.992 4.09599 83.04 4.09599C85.088 4.09599 87.2213 5.24799 89.44 7.55199C91.6587 9.856 92.768 12.16 92.768 14.464C92.768 16.768 92.4267 19.7547 91.744 23.424C91.0613 27.008 90.2933 30.3787 89.44 33.536C88.672 36.608 87.52 40.832 85.984 46.208C84.5333 51.584 83.3813 55.8507 82.528 59.008C81.76 62.08 80.9493 65.408 80.096 68.992C79.2427 72.4907 78.56 75.264 78.048 77.312C77.6213 79.2747 77.1093 81.3653 76.512 83.584C76 85.7173 75.5307 87.3813 75.104 88.576C74.6773 89.6853 74.208 90.7093 73.696 91.648C72.7573 93.44 71.4347 94.336 69.728 94.336C68.0213 94.336 66.3147 92.672 64.608 89.344C62.9867 85.9307 62.176 82.3893 62.176 78.72C62.176 69.6747 64.7787 57.6853 69.984 42.752C68.5333 44.6293 66.4427 47.4027 63.712 51.072C60.9813 54.656 58.9333 57.3013 57.568 59.008C56.288 60.6293 54.6667 62.5493 52.704 64.768C49.2053 68.608 45.792 70.528 42.464 70.528C38.0267 70.528 34.8693 68.7787 32.992 65.28C32.0533 63.488 30.7733 59.4773 29.152 53.248C27.616 46.9333 26.5067 42.5813 25.824 40.192C24.7147 48.9813 23.2213 56.96 21.344 64.128C19.4667 71.296 18.2293 75.9893 17.632 78.208C17.0347 80.4267 16.224 83.1147 15.2 86.272C13.4933 91.648 11.9573 94.336 10.592 94.336C9.056 94.336 6.92267 92.3307 4.192 88.32C1.54667 84.224 0.224 81.024 0.224 78.72C0.224 76.416 2.69867 64.896 7.648 44.16C12.6827 23.424 15.2 10.3253 15.2 4.864C15.2 2.04799 16.4373 0.639992 18.912 0.639992Z" fill="#D16B86"/>
</svg>
