<svg width="402" height="98" viewBox="0 0 402 98" fill="none" xmlns="http://www.w3.org/2000/svg">
<path d="M18.912 0.639992C20.5333 0.639992 23.6907 2.38933 28.384 5.88799C33.1627 9.30133 35.552 11.8613 35.552 13.568C35.552 16.5547 36.5333 21.4613 38.496 28.288C40.4587 35.1147 42.72 41.3013 45.28 46.848C47.84 43.8613 52.1493 38.3573 58.208 30.336C64.352 22.2293 69.5147 15.8293 73.696 11.136C77.8773 6.44266 80.992 4.09599 83.04 4.09599C85.088 4.09599 87.2213 5.24799 89.44 7.55199C91.6587 9.856 92.768 12.16 92.768 14.464C92.768 16.768 92.4267 19.7547 91.744 23.424C91.0613 27.008 90.2933 30.3787 89.44 33.536C88.672 36.608 87.52 40.832 85.984 46.208C84.5333 51.584 83.3813 55.8507 82.528 59.008C81.76 62.08 80.9493 65.408 80.096 68.992C79.2427 72.4907 78.56 75.264 78.048 77.312C77.6213 79.2747 77.1093 81.3653 76.512 83.584C76 85.7173 75.5307 87.3813 75.104 88.576C74.6773 89.6853 74.208 90.7093 73.696 91.648C72.7573 93.44 71.4347 94.336 69.728 94.336C68.0213 94.336 66.3147 92.672 64.608 89.344C62.9867 85.9307 62.176 82.3893 62.176 78.72C62.176 69.6747 64.7787 57.6853 69.984 42.752C68.5333 44.6293 66.4427 47.4027 63.712 51.072C60.9813 54.656 58.9333 57.3013 57.568 59.008C56.288 60.6293 54.6667 62.5493 52.704 64.768C49.2053 68.608 45.792 70.528 42.464 70.528C38.0267 70.528 34.8693 68.7787 32.992 65.28C32.0533 63.488 30.7733 59.4773 29.152 53.248C27.616 46.9333 26.5067 42.5813 25.824 40.192C24.7147 48.9813 23.2213 56.96 21.344 64.128C19.4667 71.296 18.2293 75.9893 17.632 78.208C17.0347 80.4267 16.224 83.1147 15.2 86.272C13.4933 91.648 11.9573 94.336 10.592 94.336C9.056 94.336 6.92267 92.3307 4.192 88.32C1.54667 84.224 0.224 81.024 0.224 78.72C0.224 76.416 2.69867 64.896 7.648 44.16C12.6827 23.424 15.2 10.3253 15.2 4.864C15.2 2.04799 16.4373 0.639992 18.912 0.639992ZM150.35 58.112C151.886 59.4773 152.654 60.7147 152.654 61.824C152.654 62.9333 152.142 65.2373 151.118 68.736C150.094 72.2347 149.411 74.9653 149.07 76.928C148.729 78.8053 148.43 80.2987 148.174 81.408C148.003 82.5173 147.875 83.4133 147.79 84.096C147.705 84.6933 147.534 85.4613 147.278 86.4C147.107 87.3387 146.937 88.1067 146.766 88.704C146.681 89.216 146.51 89.856 146.254 90.624C146.083 91.3067 145.87 91.8613 145.614 92.288C145.358 92.6293 145.059 93.0133 144.718 93.44C144.206 94.1227 143.353 94.464 142.158 94.464C140.963 94.464 139.47 93.2693 137.678 90.88C135.971 88.4907 134.691 85.5893 133.838 82.176C125.817 90.368 119.075 94.464 113.614 94.464C109.945 94.464 105.977 92.4587 101.71 88.448C97.4433 84.352 95.31 80.2987 95.31 76.288C95.31 72.192 97.1447 66.3893 100.814 58.88C104.483 51.3707 109.475 44.416 115.79 38.016C122.19 31.616 128.505 28.416 134.734 28.416C138.318 28.416 142.457 30.5067 147.15 34.688C151.843 38.8693 154.19 42.7093 154.19 46.208C154.19 49.6213 152.91 53.5893 150.35 58.112ZM113.102 78.336C116.515 78.336 121.038 76.032 126.67 71.424C132.387 66.7307 135.929 60.8427 137.294 53.76C137.379 52.736 138.105 52.1387 139.47 51.968C139.214 47.104 138.403 44.672 137.038 44.672C133.625 44.672 129.785 46.8907 125.518 51.328C121.337 55.7653 117.881 60.5013 115.15 65.536C112.505 70.5707 111.182 74.2827 111.182 76.672C111.182 77.3547 111.267 77.824 111.438 78.08C111.694 78.2507 112.249 78.336 113.102 78.336ZM168.24 50.048L167.472 35.584C167.472 30.8053 168.965 28.416 171.952 28.416C173.659 28.416 175.323 29.056 176.944 30.336C178.651 31.616 179.931 33.6213 180.784 36.352C183.685 33.792 186.843 31.744 190.256 30.208C193.755 28.5867 196.827 27.776 199.472 27.776C205.701 27.776 208.816 29.2693 208.816 32.256C208.816 33.792 208.517 34.944 207.92 35.712C207.408 36.3947 206.981 36.9067 206.64 37.248C206.384 37.5893 205.872 38.0587 205.104 38.656C204.421 39.168 203.909 39.552 203.568 39.808C201.605 41.088 200.197 41.984 199.344 42.496C195.504 44.8853 192.219 47.7867 189.488 51.2C186.757 54.528 184.709 59.1787 183.344 65.152C181.04 74.9653 178.779 82.304 176.56 87.168C174.427 91.9467 171.995 94.336 169.264 94.336C166.619 94.336 164.613 93.056 163.248 90.496C161.968 87.936 161.328 85.5467 161.328 83.328C161.328 81.024 162.139 77.6107 163.76 73.088C165.467 68.5653 166.619 64.6827 167.216 61.44C167.899 58.112 168.24 54.3147 168.24 50.048ZM220.119 12.416C220.119 10.1973 221.1 7.936 223.063 5.632C225.111 3.24266 227.074 2.048 228.951 2.048C230.914 2.048 233.218 4.352 235.863 8.96C238.508 13.568 239.831 16.9387 239.831 19.072C239.831 21.12 239.148 22.6987 237.783 23.808C236.418 24.9173 235.01 25.472 233.559 25.472C231.084 25.472 228.226 23.8507 224.983 20.608C221.74 17.3653 220.119 14.6347 220.119 12.416ZM222.039 28.416C225.026 28.416 227.671 30.1227 229.975 33.536C232.364 36.9493 233.559 40.2347 233.559 43.392C233.559 45.0133 232.066 50.8587 229.079 60.928C226.178 70.912 223.276 80.384 220.375 89.344C219.351 92.672 217.26 94.336 214.103 94.336C212.226 94.336 210.562 93.6533 209.111 92.288C207.746 90.8373 207.063 89.0027 207.063 86.784C207.063 84.48 208.13 78.848 210.263 69.888C212.482 60.8427 214.146 53.1627 215.255 46.848C216.45 40.448 217.516 35.7973 218.455 32.896C219.479 29.9093 220.674 28.416 222.039 28.416ZM298.169 52.352C298.169 56.5333 295.31 60.288 289.593 63.616C283.961 66.944 278.158 68.608 272.185 68.608C266.212 68.608 261.305 68.1813 257.465 67.328C256.697 69.632 256.313 71.936 256.313 74.24C256.313 76.544 256.697 78.208 257.465 79.232C258.233 80.1707 260.153 80.64 263.225 80.64C269.625 80.64 275.086 80.0427 279.609 78.848C284.217 77.6533 286.606 77.056 286.777 77.056C290.276 77.056 292.025 78.208 292.025 80.512C292.025 83.84 289.252 86.9973 283.705 89.984C278.244 92.9707 271.886 94.464 264.633 94.464C257.465 94.464 251.705 92.2027 247.353 87.68C243.001 83.1573 240.825 77.824 240.825 71.68C240.825 65.4507 242.617 58.9653 246.201 52.224C249.87 45.4827 254.436 39.8507 259.897 35.328C265.358 30.72 270.777 28.416 276.153 28.416C281.614 28.416 286.649 31.104 291.257 36.48C295.865 41.7707 298.169 47.0613 298.169 52.352ZM283.321 50.304C283.321 49.4507 282.425 48.2133 280.633 46.592C278.841 44.9707 277.134 44.16 275.513 44.16C273.977 44.16 271.972 45.312 269.497 47.616C267.022 49.8347 264.676 52.736 262.457 56.32C263.225 56.4053 264.334 56.448 265.785 56.448C277.476 56.448 283.321 54.4 283.321 50.304ZM389.469 28.416C392.797 28.416 395.57 30.6347 397.789 35.072C400.008 39.5093 401.117 43.5627 401.117 47.232C401.117 50.9013 400.392 56.3627 398.941 63.616C397.576 70.784 395.357 77.7387 392.285 84.48C389.298 91.136 386.056 94.464 382.557 94.464C379.741 94.464 378.333 92.544 378.333 88.704C378.333 84.864 379.442 78.592 381.661 69.888C383.88 61.184 384.989 55.4667 384.989 52.736C384.989 50.0053 384.562 48.64 383.709 48.64C381.917 48.64 379.784 50.6027 377.309 54.528C374.834 58.4533 371.848 63.7013 368.349 70.272C364.936 76.8427 362.802 81.0667 361.949 82.944C361.096 84.8213 360.37 86.3147 359.773 87.424C359.261 88.5333 358.664 89.6853 357.981 90.88C355.25 95.4027 351.624 95.4027 347.101 90.88C344.797 88.576 343.645 86.4853 343.645 84.608C343.645 84.2667 344.328 81.024 345.693 74.88C347.144 68.6507 347.869 61.568 347.869 53.632C347.869 50.304 347.485 48.64 346.717 48.64C345.693 48.64 344.498 49.664 343.133 51.712C341.768 53.76 339.677 57.472 336.861 62.848C334.045 68.224 331.613 72.6613 329.565 76.16C322.397 88.3627 316.936 94.464 313.181 94.464C311.304 94.464 308.957 92.8853 306.141 89.728C303.41 86.5707 302.045 84.1813 302.045 82.56C302.045 80.8533 302.984 76.8427 304.861 70.528C306.824 64.128 308.061 57.344 308.573 50.176C309.17 43.008 309.682 37.4187 310.109 33.408C310.621 29.3973 311.645 27.392 313.181 27.392C316.424 27.392 319.538 28.7573 322.525 31.488C325.597 34.1333 327.133 36.5653 327.133 38.784C327.133 43.8187 325.298 52.608 321.629 65.152C327.602 50.9013 332.637 41.2587 336.733 36.224C341.085 31.0187 345.266 28.416 349.277 28.416C351.496 28.416 354.226 30.464 357.469 34.56C360.797 38.656 362.461 42.496 362.461 46.08C362.461 49.5787 362.418 52.6507 362.333 55.296C364.978 48.64 368.989 42.496 374.365 36.864C379.741 31.232 384.776 28.416 389.469 28.416Z" fill="#343F52"/>
</svg>
