<svg width="16" height="23" viewBox="0 0 16 23" fill="none" xmlns="http://www.w3.org/2000/svg">
<g clip-path="url(#clip0_10_27)">
<path d="M7.99025 22.5055L1.47888 20.6979L0.0278125 4.42287H15.9722L14.5196 20.6954L7.99025 22.5055Z" fill="#264DE4"/>
<path d="M13.2761 19.6592L14.5173 5.75356H8V21.1219L13.2761 19.6592Z" fill="#2965F1"/>
<path d="M3.35431 11.7897L3.53319 13.7858H8V11.7897H3.35431ZM2.99481 7.74969L3.17625 9.74575H8V7.74969H2.99481ZM8 16.9737L7.99125 16.9761L5.76825 16.3758L5.62613 14.7839H3.62238L3.902 17.918L7.99081 19.053L8 19.0505V16.9737Z" fill="#EBEBEB"/>
<path d="M3.78025 0H6.19775V1.011H4.79125V2.022H6.19787V3.03294H3.78025V0ZM6.68131 0H9.09887V0.879125H7.69231V1.05494H9.09887V3.07694H6.68137V2.15375H8.08794V1.97794H6.68125L6.68131 0ZM9.58244 0H12V0.879125H10.5934V1.05494H12V3.07694H9.58244V2.15375H10.989V1.97794H9.5825L9.58244 0Z" fill="black"/>
<path d="M12.6329 11.7897L12.9933 7.74969H7.99313V9.74575H10.8058L10.6241 11.7897H7.99313V13.7858H10.4511L10.2193 16.3746L7.99306 16.9754V19.0521L12.0851 17.918L12.1151 17.5807L12.5843 12.3257L12.6329 11.7897Z" fill="white"/>
</g>
<defs>
<clipPath id="clip0_10_27">
<rect width="16" height="22.5625" fill="white"/>
</clipPath>
</defs>
</svg>