<svg width="16" height="16" viewBox="0 0 16 16" fill="none" xmlns="http://www.w3.org/2000/svg">
<g clip-path="url(#clip0_10_59)">
<path d="M2.18425 12.9095L4.15362 0.307756C4.16542 0.232444 4.20058 0.162742 4.25413 0.108493C4.30769 0.0542444 4.37693 0.0181915 4.45208 0.00542649C4.52724 -0.0073385 4.6045 0.00382966 4.67296 0.0373535C4.74142 0.0708774 4.79762 0.125063 4.83362 0.192256L6.87037 3.99101L7.68213 2.44526C7.71299 2.38662 7.75929 2.33753 7.81601 2.30329C7.87274 2.26905 7.93774 2.25095 8.004 2.25095C8.07026 2.25095 8.13526 2.26905 8.19199 2.30329C8.24871 2.33753 8.29501 2.38662 8.32588 2.44526L13.8221 12.9095H2.18425Z" fill="#FFA000"/>
<path d="M8.98787 8.00062L6.86938 3.98912L2.18425 12.9095L8.98787 8.00062Z" fill="#F57C00"/>
<path d="M13.8221 12.9095L12.3138 3.5755C12.3026 3.5097 12.2736 3.44824 12.2298 3.39784C12.1861 3.34744 12.1293 3.31004 12.0658 3.28975C12.0022 3.2695 11.9343 3.26712 11.8695 3.28286C11.8047 3.2986 11.7454 3.33186 11.6982 3.379L2.18425 12.9094L7.44862 15.8616C7.61121 15.9524 7.79431 16 7.9805 16C8.1667 16 8.34979 15.9524 8.51237 15.8616L13.8221 12.9095Z" fill="#FFCA28"/>
<path d="M12.3138 3.57549C12.3026 3.5097 12.2736 3.44824 12.2298 3.39784C12.1861 3.34744 12.1293 3.31004 12.0658 3.28974C12.0022 3.26948 11.9343 3.26708 11.8695 3.2828C11.8047 3.29852 11.7454 3.33175 11.6982 3.37887L9.80988 5.27224L8.325 2.44524C8.29413 2.38661 8.24784 2.33752 8.19111 2.30328C8.13439 2.26903 8.06939 2.25094 8.00313 2.25094C7.93686 2.25094 7.87186 2.26903 7.81514 2.30328C7.75841 2.33752 7.71212 2.38661 7.68125 2.44524L6.8695 3.99087L4.83275 0.192244C4.79671 0.124958 4.74041 0.0707162 4.67183 0.0371999C4.60325 0.00368367 4.52586 -0.00740866 4.45063 0.00549371C4.37544 0.0183925 4.30622 0.0546008 4.25274 0.108998C4.19926 0.163395 4.16424 0.233227 4.15263 0.308619L2.18425 12.9095H2.17788L2.18413 12.9167L2.236 12.9422L11.6955 3.47174C11.7427 3.42436 11.802 3.3909 11.8669 3.37503C11.9319 3.35916 12 3.3615 12.0637 3.38179C12.1274 3.40209 12.1843 3.43955 12.2281 3.49006C12.2719 3.54057 12.3009 3.60218 12.312 3.66812L13.8076 12.9185L13.8221 12.9094L12.3138 3.57549ZM2.2015 12.8922L4.1535 0.397744C4.1651 0.322312 4.20013 0.252439 4.25363 0.198015C4.30714 0.143592 4.3764 0.107376 4.45163 0.0944937C4.52687 0.0816023 4.60427 0.0927132 4.67285 0.126253C4.74143 0.159792 4.79772 0.21406 4.83375 0.281369L6.87025 4.08012L7.68213 2.53437C7.71299 2.47574 7.75929 2.42665 7.81601 2.3924C7.87274 2.35816 7.93774 2.34006 8.004 2.34006C8.07026 2.34006 8.13526 2.35816 8.19199 2.3924C8.24872 2.42665 8.29501 2.47574 8.32588 2.53437L9.78063 5.30124L2.20125 12.8922H2.2015Z" fill="white" fill-opacity="0.2"/>
<path opacity="0.2" d="M8.51237 15.7725C8.34979 15.8633 8.1667 15.9109 7.9805 15.9109C7.79431 15.9109 7.61121 15.8633 7.44863 15.7725L2.19675 12.8288L2.184 12.9096L7.44838 15.8609C7.61096 15.9516 7.79405 15.9993 7.98025 15.9993C8.16644 15.9993 8.34954 15.9516 8.51213 15.8609L13.8221 12.9096L13.8084 12.8259L8.51213 15.7728L8.51237 15.7725Z" fill="#A52714"/>
</g>
<defs>
<clipPath id="clip0_10_59">
<rect width="16" height="16" fill="white"/>
</clipPath>
</defs>
</svg>
