<svg width="16" height="23" viewBox="0 0 16 23" fill="none" xmlns="http://www.w3.org/2000/svg">
<g clip-path="url(#clip0_12_71)">
<path d="M15.9722 4.42288L14.5196 20.6954L7.99025 22.5055L1.47888 20.6979L0.0278168 4.42288H15.9722Z" fill="#E44D26"/>
<path d="M8 21.1219L13.2761 19.6592L14.5173 5.75356H8V21.1219Z" fill="#F16529"/>
<path d="M5.17625 9.74576H8V7.74969H2.99481L3.04256 8.28519L3.53319 13.7858H8V11.7898H5.35869L5.17625 9.74576ZM5.62612 14.7839H3.62237L3.902 17.918L7.99081 19.053L8 19.0505V16.9738L7.99125 16.9761L5.76825 16.3758L5.62612 14.7839Z" fill="#EBEBEB"/>
<path d="M1.51125 0H2.52562V1.00219H3.45356V0H4.468V3.03487H3.45362V2.01863H2.52568V3.03487H1.51131L1.51125 0ZM5.80187 1.00644H4.909V0H7.70987V1.00644H6.81643V3.03487H5.80206V1.00644H5.80187ZM8.15437 0H9.21206L9.86268 1.06638L10.5127 0H11.5708V3.03487H10.5606V1.53062L9.86268 2.60969H9.84518L9.14687 1.53062V3.03487H8.15437V0ZM12.0756 0H13.0903V2.03175H14.5168V3.03487H12.0756L12.0756 0Z" fill="black"/>
<path d="M7.99312 13.7858H10.4511L10.2193 16.3746L7.99306 16.9754V19.0521L12.0851 17.918L12.1151 17.5808L12.5842 12.3258L12.6329 11.7898H7.99312V13.7858ZM7.99312 9.74088V9.74576H12.8146L12.8546 9.29713L12.9456 8.28519L12.9932 7.74969H7.99312V9.74088Z" fill="white"/>
</g>
<defs>
<clipPath id="clip0_12_71">
<rect width="16" height="22.5625" fill="white"/>
</clipPath>
</defs>
</svg>
