<svg width="16" height="16" viewBox="0 0 16 16" fill="none" xmlns="http://www.w3.org/2000/svg">
<path d="M1 1H15V15H1V1Z" fill="#F5DE19"/>
<path d="M10.4045 11.9375C10.524 12.1797 10.7093 12.3832 10.9393 12.5247C11.1693 12.6662 11.4345 12.74 11.7045 12.7375C12.2495 12.7375 12.598 12.465 12.598 12.0875C12.598 11.6375 12.24 11.4765 11.64 11.214L11.311 11.073C10.361 10.6685 9.731 10.162 9.731 9.091C9.731 8.1045 10.481 7.35301 11.6575 7.35301C12.0383 7.32557 12.4188 7.41083 12.7516 7.59817C13.0843 7.78551 13.3545 8.06664 13.5285 8.40651L12.5 9.06401C12.433 8.89551 12.3163 8.75135 12.1655 8.65063C12.0147 8.54992 11.8368 8.49739 11.6555 8.50001C11.5764 8.49208 11.4965 8.50073 11.4209 8.5254C11.3453 8.55006 11.2757 8.5902 11.2164 8.64326C11.1572 8.69632 11.1097 8.76114 11.0769 8.83358C11.0441 8.90602 11.0268 8.98449 11.026 9.06401C11.026 9.45851 11.2705 9.61851 11.835 9.86401L12.164 10.005C13.282 10.4845 13.914 10.973 13.914 12.0715C13.914 13.256 12.9835 13.905 11.734 13.905C11.2472 13.9357 10.7619 13.825 10.3365 13.5863C9.91119 13.3476 9.5639 12.991 9.3365 12.5595L10.4045 11.9375ZM5.757 12.0515C5.9635 12.418 6.1515 12.728 6.6035 12.728C7.0355 12.728 7.3085 12.559 7.3085 11.9015V7.42801H8.624V11.919C8.624 13.281 7.824 13.901 6.6595 13.901C6.24788 13.9235 5.83908 13.8209 5.48685 13.6067C5.13461 13.3926 4.85543 13.0768 4.686 12.701L5.757 12.0515Z" fill="black"/>
</svg>
