<svg width="16" height="16" viewBox="0 0 16 16" fill="none" xmlns="http://www.w3.org/2000/svg">
<g clip-path="url(#clip0_8_2)">
<path d="M0.510874 6.41331L9.58669 15.4891C9.71919 15.6216 9.65525 15.8466 9.47106 15.881C9.16076 15.939 8.84729 15.9786 8.53231 15.9995C8.49871 16.0016 8.46504 15.9965 8.43357 15.9846C8.40209 15.9726 8.37353 15.9541 8.34981 15.9302L0.0698111 7.65019C0.0459206 7.62646 0.027377 7.59791 0.0154229 7.56643C0.00346874 7.53496 -0.00161969 7.50129 0.000498569 7.46769C0.0217486 7.14925 0.0616236 6.836 0.118999 6.52894C0.153374 6.34475 0.378374 6.28081 0.510874 6.41331ZM0.255124 10.0881C0.194499 9.86219 0.461374 9.71969 0.626749 9.88506L6.11487 15.3733C6.28031 15.5386 6.13781 15.8054 5.91194 15.7449C3.16006 15.0071 0.992999 12.84 0.255124 10.0881ZM1.0505 4.01025C1.12756 3.87681 1.30969 3.85631 1.41862 3.96531L12.0347 14.5813C12.1437 14.6903 12.1233 14.8724 11.9897 14.9494C11.7644 15.0795 11.5329 15.1985 11.296 15.306C11.2066 15.3466 11.1016 15.3261 11.0322 15.2566L0.743311 4.96794C0.673874 4.89844 0.653374 4.79356 0.693936 4.70412C0.80146 4.46721 0.920476 4.23569 1.05056 4.01038M7.99125 0C12.4144 0 16 3.58563 16 8.00875C16 10.3569 14.9895 12.4689 13.3796 13.9338C13.2867 14.0184 13.1441 14.0128 13.0552 13.9239L2.07606 2.94475C1.98725 2.85588 1.98169 2.71331 2.06619 2.62037C3.53112 1.0105 5.64319 0 7.99125 0Z" fill="#222326"/>
</g>
<defs>
<clipPath id="clip0_8_2">
<rect width="16" height="16" fill="white"/>
</clipPath>
</defs>
</svg>
