<svg width="27" height="16" viewBox="0 0 27 16" fill="none" xmlns="http://www.w3.org/2000/svg">
<g clip-path="url(#clip0_12_92)">
<path d="M12.8973 15.9538C12.809 15.9538 12.7266 15.9303 12.65 15.8891L11.8667 15.4238C11.7489 15.359 11.8078 15.3355 11.8432 15.3237C12.0022 15.2707 12.0316 15.2589 12.1965 15.1647C12.2142 15.1529 12.2378 15.1588 12.2554 15.1706L12.8561 15.5298C12.8797 15.5416 12.9091 15.5416 12.9268 15.5298L15.2766 14.1694C15.3001 14.1577 15.3119 14.1341 15.3119 14.1047V11.3898C15.3119 11.3603 15.3001 11.3368 15.2766 11.3249L12.9268 9.97045C12.9032 9.95862 12.8738 9.95862 12.8561 9.97045L10.5063 11.3249C10.4828 11.3367 10.471 11.3662 10.471 11.3897V14.1046C10.471 14.1282 10.4828 14.1576 10.5063 14.1694L11.1483 14.5404C11.4957 14.7171 11.7136 14.511 11.7136 14.3049V11.6253C11.7136 11.59 11.7431 11.5546 11.7843 11.5546H12.0846C12.12 11.5546 12.1553 11.5841 12.1553 11.6253V14.3049C12.1553 14.7701 11.9021 15.041 11.4604 15.041C11.3249 15.041 11.219 15.041 10.9186 14.8938L10.3002 14.5404C10.1471 14.4521 10.0529 14.2872 10.0529 14.1105V11.3956C10.0529 11.219 10.1471 11.054 10.3002 10.9657L12.65 9.6053C12.7972 9.52285 12.9975 9.52285 13.1447 9.6053L15.4945 10.9657C15.6476 11.054 15.7419 11.219 15.7419 11.3956V14.1105C15.7419 14.2872 15.6476 14.4521 15.4945 14.5404L13.1447 15.9008C13.0681 15.9362 12.9798 15.9538 12.8973 15.9538ZM13.6218 14.087C12.5912 14.087 12.3792 13.6158 12.3792 13.2154C12.3792 13.18 12.4086 13.1447 12.4498 13.1447H12.7561C12.7914 13.1447 12.8208 13.1683 12.8208 13.2036C12.868 13.5157 13.0034 13.6688 13.6277 13.6688C14.1223 13.6688 14.3344 13.5569 14.3344 13.2919C14.3344 13.1388 14.2755 13.027 13.504 12.9504C12.8621 12.8856 12.4616 12.7443 12.4616 12.2319C12.4616 11.7549 12.8621 11.4722 13.5334 11.4722C14.2872 11.4722 14.6583 11.7313 14.7054 12.2966C14.7054 12.3143 14.6995 12.332 14.6877 12.3497C14.6759 12.3614 14.6583 12.3732 14.6406 12.3732H14.3344C14.3049 12.3732 14.2755 12.3497 14.2696 12.3202C14.1989 11.9963 14.0164 11.8903 13.5334 11.8903C12.9916 11.8903 12.9268 12.0788 12.9268 12.2201C12.9268 12.3909 13.0034 12.4439 13.7337 12.5381C14.458 12.6324 14.7996 12.7678 14.7996 13.2742C14.7937 13.7925 14.3697 14.087 13.6218 14.087Z" fill="#539E43"/>
<path d="M5.60652 5.33564C5.60652 5.22966 5.54761 5.12948 5.4534 5.07649L2.95638 3.63954C2.9151 3.61595 2.86802 3.60418 2.82094 3.59827H2.79734C2.75026 3.59827 2.70313 3.61595 2.6619 3.63954L0.164886 5.07649C0.070618 5.12948 0.0117645 5.22961 0.0117645 5.33564L0.0176754 9.19893C0.0176754 9.25193 0.0471276 9.30492 0.0942104 9.32851C0.141344 9.35796 0.200198 9.35796 0.241472 9.32851L1.72555 8.48046C1.81976 8.42747 1.87867 8.32734 1.87867 8.22135V6.41335C1.87867 6.30736 1.93752 6.20724 2.03179 6.15424L2.6619 5.7891C2.70904 5.75964 2.76203 5.74782 2.81503 5.74782C2.86802 5.74782 2.92101 5.75964 2.96229 5.7891L3.5924 6.15424C3.68667 6.20724 3.74552 6.30731 3.74552 6.41335V8.22135C3.74552 8.32734 3.80443 8.42747 3.89864 8.48046L5.38272 9.32851C5.40565 9.34295 5.43219 9.3506 5.45928 9.3506C5.48637 9.3506 5.51291 9.34295 5.53584 9.32851C5.58297 9.30492 5.61243 9.25193 5.61243 9.19893L5.60652 5.33564ZM17.6087 0.0176828C17.5616 -0.00590953 17.5027 -0.00590953 17.4614 0.0176828C17.4144 0.0471351 17.3849 0.0942179 17.3849 0.147211V3.97524C17.3849 4.01055 17.3673 4.04586 17.3319 4.06945C17.2966 4.08708 17.2613 4.08708 17.2259 4.06945L16.6017 3.71022C16.5559 3.68417 16.5041 3.67048 16.4515 3.67048C16.3988 3.67048 16.3471 3.68417 16.3013 3.71022L13.8043 5.15307C13.7101 5.20607 13.6512 5.30619 13.6512 5.41218V8.29198C13.6512 8.39796 13.7101 8.49814 13.8043 8.55113L16.3013 9.99399C16.3471 10.02 16.3988 10.0337 16.4515 10.0337C16.5041 10.0337 16.5559 10.02 16.6017 9.99399L19.0987 8.55113C19.1929 8.49814 19.2518 8.39801 19.2518 8.29198V1.11307C19.2518 1.00117 19.1929 0.901097 19.0987 0.848052L17.6087 0.0176828ZM17.3791 7.34385C17.3791 7.3733 17.3673 7.39684 17.3437 7.40861L16.4898 7.90329C16.4779 7.90912 16.4648 7.91215 16.4515 7.91215C16.4382 7.91215 16.4251 7.90912 16.4132 7.90329L15.5593 7.40861C15.5357 7.39684 15.5239 7.36739 15.5239 7.34385V6.35445C15.5239 6.325 15.5357 6.30145 15.5593 6.28968L16.4132 5.79496C16.4251 5.78912 16.4382 5.78609 16.4515 5.78609C16.4648 5.78609 16.4779 5.78912 16.4898 5.79496L17.3437 6.28968C17.3673 6.3014 17.3791 6.33091 17.3791 6.35445V7.34385ZM25.9184 6.33091C26.0126 6.27791 26.0656 6.17778 26.0656 6.07175V5.37096C26.0656 5.26497 26.0067 5.16484 25.9184 5.11185L23.439 3.67491C23.3933 3.64886 23.3415 3.63517 23.2888 3.63517C23.2362 3.63517 23.1844 3.64886 23.1386 3.67491L20.6416 5.11771C20.5474 5.1707 20.4885 5.27083 20.4885 5.37682V8.25666C20.4885 8.36265 20.5474 8.46278 20.6416 8.51577L23.121 9.92917C23.2152 9.98217 23.3271 9.98217 23.4155 9.92917L24.9172 9.09299C24.9643 9.0694 24.9938 9.01641 24.9938 8.96342C24.9938 8.91042 24.9643 8.85743 24.9172 8.83384L22.4084 7.39098C22.3613 7.36153 22.3318 7.31445 22.3318 7.26145V6.36041C22.3318 6.30742 22.3613 6.25442 22.4084 6.23083L23.1916 5.78324C23.2146 5.7688 23.2411 5.76114 23.2682 5.76114C23.2953 5.76114 23.3218 5.7688 23.3448 5.78324L24.128 6.23083C24.1752 6.26028 24.2046 6.30736 24.2046 6.36041V7.06711C24.2046 7.1201 24.234 7.1731 24.2812 7.19664C24.3041 7.21107 24.3306 7.21873 24.3577 7.21873C24.3848 7.21873 24.4114 7.21107 24.4343 7.19664L25.9184 6.33091Z" fill="#333333"/>
<path d="M23.2505 6.19541C23.2593 6.18965 23.2695 6.18658 23.28 6.18658C23.2905 6.18658 23.3007 6.18965 23.3094 6.19541L23.7865 6.4722C23.8041 6.48402 23.8159 6.50166 23.8159 6.5252V7.07883C23.8159 7.10237 23.8042 7.12005 23.7865 7.13182L23.3094 7.40861C23.3007 7.41437 23.2905 7.41745 23.28 7.41745C23.2695 7.41745 23.2593 7.41437 23.2505 7.40861L22.7735 7.13182C22.7559 7.12005 22.7441 7.10237 22.7441 7.07883V6.52525C22.7441 6.50165 22.7558 6.48397 22.7735 6.47225L23.2505 6.19541Z" fill="#539E43"/>
<path d="M9.78196 3.68668C9.73619 3.66064 9.68444 3.64695 9.63179 3.64695C9.57914 3.64695 9.52739 3.66064 9.48162 3.68668L7.00229 5.11766C6.90802 5.17065 6.85503 5.27078 6.85503 5.37677V8.24484C6.85503 8.35083 6.91393 8.45096 7.00229 8.50395L9.48162 9.93503C9.52739 9.96107 9.57914 9.97476 9.63179 9.97476C9.68444 9.97476 9.73619 9.96107 9.78196 9.93503L12.2613 8.50395C12.3556 8.45096 12.4086 8.35083 12.4086 8.24484V5.37682C12.4086 5.27083 12.3497 5.1707 12.2613 5.11771L9.78196 3.68668Z" fill="url(#paint0_linear_12_92)"/>
<mask id="mask0_12_92" style="mask-type:luminance" maskUnits="userSpaceOnUse" x="6" y="3" width="7" height="7">
<path d="M9.78196 3.68668C9.73619 3.66064 9.68444 3.64695 9.63179 3.64695C9.57914 3.64695 9.52739 3.66064 9.48162 3.68668L7.00229 5.11766C6.90802 5.17065 6.85503 5.27078 6.85503 5.37677V8.24484C6.85503 8.35083 6.91393 8.45096 7.00229 8.50395L9.48162 9.93503C9.52739 9.96107 9.57914 9.97476 9.63179 9.97476C9.68444 9.97476 9.73619 9.96107 9.78196 9.93503L12.2613 8.50395C12.3556 8.45096 12.4086 8.35083 12.4086 8.24484V5.37682C12.4086 5.27083 12.3497 5.1707 12.2613 5.11771L9.78196 3.68668Z" fill="white"/>
</mask>
<g mask="url(#mask0_12_92)">
<path d="M12.2672 5.11771L9.7761 3.68668C9.75162 3.67431 9.72597 3.66444 9.69951 3.65723L6.90802 8.43929C6.93116 8.46751 6.95908 8.49143 6.99052 8.50997L9.48163 9.94105C9.5523 9.98227 9.63475 9.99404 9.71128 9.97045L12.332 5.17667C12.3143 5.15312 12.2907 5.13534 12.2672 5.11771Z" fill="url(#paint1_linear_12_92)"/>
</g>
<mask id="mask1_12_92" style="mask-type:luminance" maskUnits="userSpaceOnUse" x="6" y="3" width="7" height="7">
<path d="M9.78196 3.68668C9.73619 3.66064 9.68444 3.64695 9.63179 3.64695C9.57914 3.64695 9.52739 3.66064 9.48162 3.68668L7.00229 5.11766C6.90802 5.17065 6.85503 5.27078 6.85503 5.37677V8.24484C6.85503 8.35083 6.91393 8.45096 7.00229 8.50395L9.48162 9.93503C9.52739 9.96107 9.57914 9.97476 9.63179 9.97476C9.68444 9.97476 9.73619 9.96107 9.78196 9.93503L12.2613 8.50395C12.3556 8.45096 12.4086 8.35083 12.4086 8.24484V5.37682C12.4086 5.27083 12.3497 5.1707 12.2613 5.11771L9.78196 3.68668Z" fill="white"/>
</mask>
<g mask="url(#mask1_12_92)">
<path fill-rule="evenodd" clip-rule="evenodd" d="M12.2731 8.504C12.3438 8.46278 12.3968 8.3921 12.4204 8.31557L9.68768 3.65131C9.617 3.63954 9.54042 3.6454 9.47571 3.68663L7.00223 5.11185L9.67 9.97631C9.70881 9.96999 9.7465 9.9581 9.7819 9.941L12.2731 8.504Z" fill="url(#paint2_linear_12_92)"/>
<path fill-rule="evenodd" clip-rule="evenodd" d="M12.2731 8.504L9.78786 9.93508C9.75277 9.95295 9.71496 9.96488 9.67596 9.97039L9.7231 10.0587L12.4792 8.46283V8.42746L12.4086 8.30965C12.3968 8.3921 12.3438 8.46278 12.2731 8.504Z" fill="url(#paint3_linear_12_92)"/>
<path fill-rule="evenodd" clip-rule="evenodd" d="M12.2731 8.504L9.78786 9.93508C9.75277 9.95295 9.71496 9.96488 9.67596 9.97039L9.7231 10.0587L12.4792 8.46283V8.42746L12.4086 8.30965C12.3968 8.3921 12.3438 8.46278 12.2731 8.504Z" fill="url(#paint4_linear_12_92)"/>
</g>
</g>
<defs>
<linearGradient id="paint0_linear_12_92" x1="385.543" y1="114.301" x2="113.786" y2="541.314" gradientUnits="userSpaceOnUse">
<stop stop-color="#41873F"/>
<stop offset="0.3288" stop-color="#418B3D"/>
<stop offset="0.6352" stop-color="#419637"/>
<stop offset="0.9319" stop-color="#3FA92D"/>
<stop offset="1" stop-color="#3FAE2A"/>
</linearGradient>
<linearGradient id="paint1_linear_12_92" x1="241.642" y1="352.615" x2="922.251" y2="-17.1621" gradientUnits="userSpaceOnUse">
<stop offset="0.1376" stop-color="#41873F"/>
<stop offset="0.4032" stop-color="#54A044"/>
<stop offset="0.7136" stop-color="#66B848"/>
<stop offset="0.9081" stop-color="#6CC04A"/>
</linearGradient>
<linearGradient id="paint2_linear_12_92" x1="-16.778" y1="320.145" x2="556.938" y2="320.145" gradientUnits="userSpaceOnUse">
<stop offset="0.09192" stop-color="#6CC04A"/>
<stop offset="0.2864" stop-color="#66B848"/>
<stop offset="0.5968" stop-color="#54A044"/>
<stop offset="0.8624" stop-color="#41873F"/>
</linearGradient>
<linearGradient id="paint3_linear_12_92" x1="-281.474" y1="96.2454" x2="292.236" y2="96.2454" gradientUnits="userSpaceOnUse">
<stop offset="0.09192" stop-color="#6CC04A"/>
<stop offset="0.2864" stop-color="#66B848"/>
<stop offset="0.5968" stop-color="#54A044"/>
<stop offset="0.8624" stop-color="#41873F"/>
</linearGradient>
<linearGradient id="paint4_linear_12_92" x1="375.818" y1="-360.87" x2="230.475" y2="400.723" gradientUnits="userSpaceOnUse">
<stop stop-color="#41873F"/>
<stop offset="0.3288" stop-color="#418B3D"/>
<stop offset="0.6352" stop-color="#419637"/>
<stop offset="0.9319" stop-color="#3FA92D"/>
<stop offset="1" stop-color="#3FAE2A"/>
</linearGradient>
<clipPath id="clip0_12_92">
<rect width="26.0892" height="16" fill="white"/>
</clipPath>
</defs>
</svg>
