<svg width="16" height="16" viewBox="0 0 16 16" fill="none" xmlns="http://www.w3.org/2000/svg">
<g clip-path="url(#clip0_12_86)">
<path d="M9.53125 0.03125L11.1636 0.042C11.1944 0.065875 11.2193 0.0815 11.2456 0.09325C11.5415 0.227 11.8623 0.32275 12.1289 0.5005C12.9019 1.01425 13.6568 1.55563 14.4111 2.09675C14.7618 2.34763 15.1074 2.60887 15.4306 2.893C15.6709 3.104 15.7788 3.40338 15.7794 3.72263L15.7788 13.769C15.7784 13.9091 15.7544 14.0532 15.7154 14.188C15.5381 14.8022 15.145 15.2226 14.5264 15.3868C14.2001 15.4731 13.8555 15.5 13.5171 15.5279C12.9893 15.5717 12.4595 15.5932 11.9306 15.625L10.9301 15.6875L9.32813 15.7817L8.34325 15.8433L6.72563 15.937L5.88963 15.9712C5.86275 15.9726 5.83788 16.0103 5.8125 16.0312C5.17625 16.0312 4.5405 16.0312 3.89888 16.021C3.86813 15.9966 3.84475 15.977 3.81738 15.9692C3.42963 15.8569 3.1045 15.6426 2.8545 15.3315C2.50825 14.9014 2.17925 14.458 1.84625 14.0176C1.437 13.4765 1.01713 12.9434 0.630379 12.3868C0.403058 12.0615 0.281301 11.6742 0.281629 11.2774C0.280539 8.31025 0.280914 5.34312 0.282754 2.376C0.282754 2.2905 0.297754 2.20412 0.312504 2.11912C0.467754 1.20562 1.144 0.71825 1.94825 0.627875C2.36575 0.581 2.78613 0.56 3.20563 0.53225L4.31438 0.46825L4.791 0.437L6.2285 0.313L7.02538 0.2505L8.34525 0.15675L9.454 0.09125C9.481 0.089375 9.50588 0.05225 9.53125 0.03125ZM3.24313 14.273C3.30963 14.3594 3.38375 14.4414 3.44188 14.5332C3.72363 14.9741 4.1275 15.1343 4.64063 15.1001L8.11675 14.8931L12.0288 14.6567L13.9765 14.5312C14.5538 14.4849 14.8325 14.1729 14.8438 13.5938V13.4688L14.8481 3.98587C14.8486 3.70025 14.75 3.5005 14.5215 3.34087L11.7685 1.40087C11.3256 1.07862 10.8555 0.92825 10.311 0.97125L7.228 1.19925L4.00438 1.437L1.981 1.59475C1.57225 1.63225 1.31888 1.88225 1.24563 2.28325C1.22782 2.38561 1.21916 2.48935 1.21975 2.59325L1.21138 10.8735C1.2085 11.416 1.3745 11.8673 1.69925 12.2823L3.24313 14.273Z" fill="white"/>
<path d="M3.23587 14.2646L1.69925 12.2821C1.3745 11.8671 1.2085 11.416 1.21137 10.8735L1.21975 2.59325C1.21975 2.48975 1.2275 2.38475 1.24562 2.28325C1.31887 1.88238 1.57225 1.63238 1.981 1.59475L4.00437 1.437L7.22812 1.19925L10.311 0.971251C10.8555 0.928251 11.3256 1.07863 11.7685 1.40088C12.6762 2.0615 13.601 2.69875 14.5215 3.34088C14.75 3.5005 14.8486 3.70025 14.8481 3.98588L14.8437 13.4693V13.5943C14.8325 14.1729 14.5537 14.4849 13.9765 14.5313C13.3281 14.5835 12.6782 14.6173 12.0287 14.6568L8.11675 14.893L4.64062 15.1001C4.1275 15.1343 3.72362 14.9741 3.44187 14.5333C3.38375 14.4414 3.30962 14.3594 3.23587 14.2646ZM4.03662 8.51563V12.7016L4.03762 13.4824C4.04437 13.8325 4.21587 14.0069 4.56587 14.0269C4.65375 14.0318 4.74262 14.0288 4.831 14.0234L7.76125 13.8506L13.3569 13.5308C13.7056 13.5113 13.8667 13.3584 13.8994 13.0128C13.9057 12.9506 13.9037 12.8878 13.9037 12.8253L13.9042 4.76563C13.9042 4.71875 13.9057 4.67188 13.9029 4.625C13.8819 4.30425 13.7441 4.17338 13.4254 4.19038L10.5415 4.3565C9.19072 4.43508 7.83997 4.51417 6.48925 4.59375L4.46337 4.71538C4.20512 4.73188 4.08837 4.84325 4.04937 5.09575C4.04014 5.16272 4.03604 5.23029 4.03712 5.29788L4.03662 8.51563ZM11.1831 1.92475C10.9385 1.792 10.6729 1.748 10.3994 1.76313C9.979 1.78613 9.55862 1.82075 9.13812 1.85113L3.1445 2.28663C2.96337 2.29975 2.78125 2.31288 2.6025 2.34525C2.5425 2.356 2.46675 2.4165 2.44825 2.47125C2.4345 2.50975 2.49512 2.5875 2.5395 2.63C2.62162 2.7085 2.71625 2.77438 2.80575 2.84525C3.01812 3.01275 3.24412 3.1655 3.439 3.35063C3.80862 3.70163 4.23875 3.78275 4.7315 3.74713L8.61087 3.50388L12.7871 3.25338C12.8252 3.2515 12.8634 3.23975 12.9472 3.22413C12.8706 3.1445 12.8261 3.0835 12.7681 3.0405C12.5635 2.8894 12.357 2.74097 12.1485 2.59525C11.8282 2.36959 11.5064 2.14608 11.1831 1.92475Z" fill="black"/>
<path d="M4.03662 8.5L4.03712 5.29787C4.03712 5.23037 4.03912 5.16212 4.04937 5.09575C4.08837 4.84325 4.20512 4.732 4.46337 4.71537L6.48925 4.59375L10.5415 4.3565L13.4252 4.19037C13.7441 4.17337 13.8819 4.30462 13.9027 4.625C13.9057 4.67187 13.9042 4.71875 13.9042 4.76562L13.9037 12.8252L13.8994 13.0127C13.8667 13.3584 13.7056 13.5113 13.3569 13.5308L7.76125 13.8506L4.831 14.0234L4.566 14.0269C4.21587 14.0069 4.04437 13.8325 4.03762 13.4829L4.03662 12.7016V8.5ZM9.75737 8.50825L8.14887 6.05762C8.09275 5.97212 8.03762 5.94387 7.93412 5.95512L7.2485 6.00137L5.98725 6.09375C5.67725 6.12212 5.48975 6.41362 5.57562 6.71587L6.24362 6.773V12.1846L5.78862 12.313C5.58687 12.3725 5.5005 12.5425 5.56837 12.7598L7.10687 12.6714L7.71287 12.6216C7.97412 12.5786 8.11475 12.4185 8.14987 12.1573L7.30862 11.9654V7.895L7.37112 7.9825L9.30462 11.0015C9.58883 11.4424 9.88071 11.8783 10.1801 12.309C10.3935 12.6153 10.708 12.709 11.0615 12.6327C11.2827 12.5855 11.4951 12.4956 11.7119 12.4257C11.8247 12.3891 11.8632 12.3217 11.8627 12.1952L11.859 6.63275C11.859 6.30762 11.859 6.30762 12.1806 6.24275C12.5059 6.17725 12.5874 6.04737 12.5131 5.69975L10.5694 5.81787C10.3579 5.833 10.1977 6.00975 10.1656 6.21537C10.1499 6.3145 10.1704 6.36912 10.289 6.376L10.8775 6.441V10.2134C10.5047 9.64476 10.1314 9.07655 9.75737 8.50875V8.50825ZM11.1937 1.93012C11.5128 2.15047 11.831 2.37214 12.1482 2.59512C12.3568 2.74088 12.5634 2.88935 12.768 3.0405C12.826 3.0835 12.8705 3.1445 12.9471 3.22412L12.787 3.25337L8.61075 3.50387L4.73137 3.74712C4.23862 3.78275 3.8085 3.70162 3.43887 3.35062C3.244 3.16562 3.018 3.01275 2.8055 2.84525C2.71612 2.77437 2.6215 2.7085 2.53937 2.62987C2.495 2.58737 2.43437 2.50987 2.44812 2.47112C2.46662 2.4165 2.54287 2.356 2.60237 2.34525C2.78112 2.313 2.96325 2.29975 3.14437 2.28662L9.13812 1.85112L10.3994 1.76312C10.6727 1.74812 10.9384 1.79187 11.1937 1.93012Z" fill="white"/>
<path d="M9.76413 8.5175L10.8775 10.2134V6.44088L10.2891 6.37588C10.1704 6.36913 10.1499 6.3145 10.1655 6.21538C10.1978 6.00975 10.358 5.833 10.5693 5.81788L12.5131 5.69975C12.5874 6.04725 12.5059 6.17725 12.1806 6.24263C11.8589 6.30713 11.8589 6.30713 11.8589 6.63275L11.8628 12.1953C11.8633 12.3218 11.8248 12.3891 11.7119 12.4258L11.0615 12.6328C10.708 12.7085 10.3935 12.6153 10.1803 12.309C9.88097 11.8782 9.58909 11.4423 9.30476 11.0015L7.371 7.98238C7.35738 7.96088 7.34175 7.94088 7.3085 7.895V11.9654L8.14988 12.1573C8.11475 12.4185 7.97413 12.5785 7.71288 12.6216C7.51363 12.6543 7.30913 12.6591 7.10688 12.6714L5.56838 12.7598C5.50051 12.5425 5.58688 12.3725 5.78863 12.313L6.24363 12.1846V6.773L5.57563 6.71588C5.48976 6.41363 5.67725 6.12213 5.98725 6.09375C6.40675 6.05463 6.82813 6.03075 7.2485 6.0015C7.477 5.98588 7.7065 5.98 7.93413 5.95513C8.03763 5.94388 8.09288 5.97213 8.14888 6.05763L9.76413 8.5175Z" fill="black"/>
</g>
<defs>
<clipPath id="clip0_12_86">
<rect width="16" height="16" fill="white"/>
</clipPath>
</defs>
</svg>
