<svg width="16" height="16" viewBox="0 0 16 16" fill="none" xmlns="http://www.w3.org/2000/svg">
<path d="M0 8C0 10.3241 3.58175 12.2084 8 12.2084C12.4183 12.2084 16 10.3241 16 8C16 5.67588 12.4181 3.79163 8 3.79163C3.58187 3.79163 0 5.67588 0 8Z" fill="url(#paint0_radial_9_4)"/>
<path d="M8 11.8959C12.2456 11.8959 15.6875 10.1515 15.6875 8C15.6875 5.84825 12.2456 4.10413 8 4.10413C3.75437 4.10413 0.3125 5.84825 0.3125 8C0.3125 10.1515 3.75437 11.8959 8 11.8959Z" fill="#777BB3"/>
<path d="M4.3465 8.483C4.69563 8.483 4.95613 8.41862 5.121 8.29175C5.28425 8.166 5.39688 7.94837 5.456 7.64487C5.511 7.36112 5.49 7.16312 5.3935 7.05612C5.295 6.94687 5.08188 6.8915 4.76013 6.8915H4.20213L3.893 8.483H4.3465ZM2.52163 10.4434C2.50882 10.4434 2.49618 10.4405 2.48461 10.435C2.47304 10.4295 2.46283 10.4216 2.4547 10.4117C2.44658 10.4018 2.44074 10.3902 2.43762 10.3778C2.43449 10.3654 2.43415 10.3524 2.43663 10.3399L3.25625 6.12262C3.26012 6.10291 3.27071 6.08515 3.28621 6.07236C3.30171 6.05957 3.32116 6.05255 3.34125 6.0525H5.108C5.66325 6.0525 6.0765 6.20325 6.33638 6.50062C6.59738 6.79937 6.67813 7.21737 6.576 7.7425C6.53438 7.95637 6.46288 8.155 6.3635 8.333C6.26009 8.51611 6.12809 8.68152 5.9725 8.823C5.78113 9.002 5.5645 9.132 5.32913 9.20837C5.09763 9.28387 4.80013 9.32212 4.44538 9.32212H3.72988L3.52563 10.3731C3.52177 10.3929 3.51116 10.4107 3.4956 10.4235C3.48005 10.4364 3.46053 10.4434 3.44038 10.4434H2.52163Z" fill="black"/>
<path d="M4.27375 6.97825H4.76012C5.1485 6.97825 5.28337 7.0635 5.32925 7.11437C5.40512 7.19862 5.41962 7.3765 5.37062 7.62837C5.31575 7.9105 5.214 8.11062 5.06812 8.22287C4.91887 8.33787 4.67587 8.39612 4.3465 8.39612H3.99825L4.27375 6.97825ZM5.108 5.96575H3.34137C3.30109 5.96575 3.26205 5.97975 3.23095 6.00536C3.19985 6.03097 3.17861 6.06659 3.17087 6.10612L2.35125 10.3235C2.34641 10.3486 2.34717 10.3745 2.35349 10.3993C2.35981 10.4241 2.37153 10.4472 2.38781 10.4669C2.40408 10.4866 2.42452 10.5025 2.44765 10.5135C2.47078 10.5244 2.49604 10.5301 2.52162 10.5301H3.44037C3.48066 10.5301 3.51967 10.5161 3.55075 10.4904C3.58183 10.4648 3.60304 10.4292 3.61075 10.3896L3.80137 9.40887H4.44525C4.80925 9.40887 5.11575 9.36912 5.35612 9.29087C5.60325 9.21062 5.83062 9.0745 6.03187 8.88625C6.19395 8.73868 6.33147 8.56623 6.43925 8.37537C6.54312 8.1895 6.61787 7.982 6.66112 7.759C6.76862 7.20612 6.68125 6.7635 6.40162 6.4435C6.12462 6.12637 5.68937 5.96562 5.108 5.96562V5.96575ZM3.78762 8.56962H4.3465C4.71692 8.56971 4.99275 8.49991 5.174 8.36025C5.35525 8.22075 5.47767 7.98779 5.54125 7.66137C5.60192 7.34787 5.57421 7.12671 5.45812 6.99787C5.34187 6.86904 5.10921 6.80462 4.76012 6.80462H4.13062L3.78762 8.56962ZM5.10812 6.139C5.63962 6.139 6.02725 6.2785 6.271 6.5575C6.51475 6.8365 6.58808 7.22591 6.491 7.72575C6.45083 7.93175 6.38312 8.12 6.28787 8.2905C6.19246 8.46116 6.06783 8.61729 5.914 8.75887C5.73067 8.93054 5.52683 9.05283 5.3025 9.12575C5.07825 9.19875 4.79254 9.23521 4.44537 9.23512H3.65837L3.4405 10.3564H2.52175L3.3415 6.139H5.10812Z" fill="white"/>
<path d="M8.68237 9.32213C8.66956 9.32214 8.65691 9.31932 8.64532 9.31386C8.63373 9.30841 8.62349 9.30045 8.61534 9.29057C8.60719 9.28069 8.60133 9.26912 8.59818 9.2567C8.59503 9.24429 8.59467 9.23132 8.59713 9.21875L8.95963 7.35275C8.99425 7.17525 8.98575 7.048 8.93587 6.994C8.90525 6.96113 8.8135 6.906 8.54212 6.906H7.88513L7.42938 9.252C7.42546 9.27176 7.41481 9.28954 7.39924 9.30231C7.38366 9.31508 7.36414 9.32204 7.344 9.322H6.43275C6.41995 9.32201 6.4073 9.31919 6.39572 9.31374C6.38414 9.30829 6.3739 9.30035 6.36574 9.29049C6.35758 9.28062 6.35171 9.26908 6.34853 9.25667C6.34536 9.24427 6.34496 9.23132 6.34737 9.21875L7.16713 5.00138C7.17101 4.98162 7.18163 4.96382 7.19718 4.95103C7.21273 4.93824 7.23224 4.93125 7.25238 4.93125H8.16362C8.17643 4.93124 8.18907 4.93406 8.20065 4.93951C8.21224 4.94496 8.22248 4.9529 8.23063 4.96277C8.23879 4.97263 8.24467 4.98418 8.24784 4.99658C8.25102 5.00898 8.25141 5.02193 8.249 5.0345L8.05125 6.0525H8.75788C9.29625 6.0525 9.66125 6.14725 9.87387 6.34263C10.0905 6.54175 10.1582 6.86013 10.0749 7.28925L9.6935 9.252C9.68959 9.27174 9.67896 9.2895 9.66341 9.30227C9.64786 9.31503 9.62837 9.32201 9.60825 9.322L8.68237 9.32213Z" fill="black"/>
<path d="M8.16375 4.84438H7.25237C7.21207 4.84438 7.17302 4.85841 7.14192 4.88404C7.11081 4.90967 7.08959 4.94532 7.08187 4.98488L6.26225 9.20213C6.25739 9.22726 6.25814 9.25315 6.26445 9.27796C6.27076 9.30276 6.28247 9.32587 6.29875 9.34562C6.31503 9.36538 6.33547 9.38129 6.35861 9.39222C6.38175 9.40316 6.40703 9.40884 6.43262 9.40888H7.344C7.3843 9.40887 7.42335 9.39485 7.45446 9.36921C7.48556 9.34358 7.50679 9.30794 7.5145 9.26838L7.95662 6.99275H8.54187C8.81287 6.99275 8.86987 7.05063 8.872 7.05325C8.8885 7.07075 8.91012 7.15263 8.87437 7.33625L8.51187 9.20213C8.50701 9.22727 8.50776 9.25317 8.51408 9.27799C8.5204 9.3028 8.53212 9.32591 8.54841 9.34567C8.56471 9.36543 8.58516 9.38134 8.60832 9.39226C8.63148 9.40319 8.65677 9.40886 8.68237 9.40888H9.60837C9.64866 9.40884 9.68768 9.3948 9.71875 9.36917C9.74983 9.34355 9.77104 9.30791 9.77875 9.26838L10.1601 7.30588C10.2495 6.84513 10.173 6.49963 9.93262 6.27875C9.70312 6.068 9.31887 5.96563 8.75787 5.96563H8.15662L8.33425 5.05125C8.33913 5.0261 8.3384 5.00018 8.33209 4.97535C8.32578 4.95052 8.31406 4.92739 8.29777 4.90762C8.28147 4.88785 8.26101 4.87193 8.23784 4.86099C8.21467 4.85006 8.18937 4.84438 8.16375 4.84438ZM8.16375 5.01813L7.94587 6.13913H8.75787C9.26879 6.13913 9.62117 6.22829 9.815 6.40663C10.009 6.58479 10.0672 6.87354 9.98975 7.27288L9.60825 9.23525H8.68237L9.045 7.36925C9.08625 7.157 9.07104 7.01225 8.99937 6.935C8.92771 6.85783 8.77529 6.81925 8.54212 6.81925H7.8135L7.344 9.23513H6.4325L7.25225 5.01775H8.16375V5.01813Z" fill="white"/>
<path d="M11.517 8.483C11.8661 8.483 12.1267 8.41862 12.2917 8.29175C12.4547 8.166 12.5675 7.94837 12.6266 7.64487C12.6816 7.36112 12.6607 7.16312 12.5641 7.05612C12.4656 6.94687 12.2525 6.8915 11.9307 6.8915H11.3729L11.0635 8.483H11.517ZM9.6925 10.4434C9.67968 10.4434 9.66701 10.4406 9.65541 10.4351C9.64381 10.4296 9.63356 10.4217 9.62541 10.4118C9.61725 10.4019 9.6114 10.3903 9.60826 10.3779C9.60512 10.3654 9.60477 10.3525 9.60725 10.3399L10.4269 6.12262C10.4308 6.10287 10.4414 6.08507 10.4569 6.07228C10.4725 6.05949 10.492 6.0525 10.5121 6.0525H12.2788C12.834 6.0525 13.2472 6.20325 13.507 6.50062C13.7681 6.79937 13.8487 7.21737 13.7466 7.7425C13.7075 7.94934 13.6359 8.14865 13.5343 8.333C13.4308 8.51611 13.2988 8.68152 13.1433 8.823C12.952 9.002 12.7351 9.132 12.4999 9.20837C12.2684 9.28387 11.9709 9.32212 11.616 9.32212H10.9006L10.6965 10.3731C10.6926 10.3929 10.682 10.4108 10.6664 10.4236C10.6509 10.4364 10.6313 10.4434 10.6111 10.4434H9.6925Z" fill="black"/>
<path d="M11.4444 6.97825H11.9308C12.3191 6.97825 12.454 7.0635 12.4998 7.11437C12.576 7.19862 12.5903 7.3765 12.5414 7.62837C12.4864 7.9105 12.3846 8.11062 12.2388 8.22287C12.0894 8.33787 11.8464 8.39612 11.5171 8.39612H11.1689L11.4444 6.97825ZM12.2786 5.96575H10.512C10.4717 5.96578 10.4327 5.9798 10.4017 6.0054C10.3706 6.031 10.3494 6.06661 10.3416 6.10612L9.52188 10.3235C9.51703 10.3486 9.5178 10.3745 9.52413 10.3993C9.53046 10.4241 9.54218 10.4472 9.55847 10.467C9.57476 10.4867 9.59521 10.5026 9.61836 10.5135C9.64151 10.5244 9.66678 10.5301 9.69238 10.5301H10.6111C10.6514 10.5301 10.6904 10.5161 10.7215 10.4904C10.7526 10.4648 10.7738 10.4292 10.7815 10.3896L10.9721 9.40887H11.6159C11.9798 9.40887 12.2864 9.36912 12.5266 9.29087C12.7739 9.21062 13.0013 9.0745 13.2026 8.88612C13.3646 8.73859 13.5021 8.56617 13.6099 8.37537C13.7139 8.1895 13.7884 7.982 13.8318 7.759C13.9393 7.20612 13.852 6.7635 13.5723 6.4435C13.2953 6.12637 12.8601 5.96562 12.2785 5.96562L12.2786 5.96575ZM10.9583 8.56962H11.517C11.8874 8.56971 12.1633 8.49991 12.3448 8.36025C12.526 8.22075 12.6483 7.98779 12.7118 7.66137C12.7727 7.34787 12.745 7.12671 12.6286 6.99787C12.5123 6.86904 12.2797 6.80462 11.9308 6.80462H11.3014L10.9583 8.56962ZM12.2786 6.139C12.8101 6.139 13.1978 6.2785 13.4415 6.5575C13.6853 6.8365 13.7585 7.22591 13.6614 7.72575C13.6214 7.93175 13.5537 8.12 13.4584 8.2905C13.363 8.46116 13.2384 8.61729 13.0844 8.75887C12.901 8.93054 12.6972 9.05283 12.4729 9.12575C12.2487 9.19875 11.963 9.23521 11.6159 9.23512H10.829L10.6109 10.3564H9.69213L10.5119 6.139H12.2786Z" fill="white"/>
<defs>
<radialGradient id="paint0_radial_9_4" cx="0" cy="0" r="1" gradientUnits="userSpaceOnUse" gradientTransform="translate(4.80325 5.27113) scale(10.5052)">
<stop stop-color="#AEB2D5"/>
<stop offset="0.3" stop-color="#AEB2D5"/>
<stop offset="0.75" stop-color="#484C89"/>
<stop offset="1" stop-color="#484C89"/>
</radialGradient>
</defs>
</svg>
