<svg width="16" height="16" viewBox="0 0 16 16" fill="none" xmlns="http://www.w3.org/2000/svg">
<g clip-path="url(#clip0_9_13)">
<path d="M14.1396 3.25825C11.521 -0.132751 6.64888 -0.758751 3.25775 1.86037C-0.132874 4.4795 -0.758248 9.35162 1.86088 12.7422C4.4805 16.1327 9.353 16.7577 12.7431 14.1381C16.1324 11.519 16.7579 6.64837 14.1396 3.25825Z" fill="#F37036"/>
<path d="M11.3848 3.0205C11.1177 3.04186 10.8645 3.14812 10.6621 3.32375C10.4253 3.52939 10.2742 3.8163 10.2386 4.12788C10.203 4.43946 10.2854 4.75308 10.4696 5.00688C10.6537 5.26071 10.9262 5.43636 11.2334 5.49918C11.5406 5.56201 11.8602 5.50744 12.1291 5.34625H12.1294L12.1489 5.36575C12.2375 5.315 12.3199 5.25418 12.3945 5.1845C12.6247 4.941 12.7514 4.61759 12.7477 4.2825C12.7441 3.94741 12.6105 3.62683 12.375 3.38838V3.38813L11.2695 4.48675L11.25 4.46738L12.3555 3.36825C12.2275 3.24489 12.0748 3.15011 11.9075 3.0902C11.7401 3.0303 11.5619 3.00662 11.3848 3.02075V3.0205ZM9.92925 4.81888C9.39925 4.818 8.53388 5.41875 6.42088 7.53175L6.43138 7.5425C6.41988 7.5385 6.40825 7.53813 6.40825 7.53813L5.61275 8.32663C5.59232 8.34606 5.5788 8.37163 5.57424 8.39945C5.56969 8.42727 5.57434 8.45582 5.5875 8.48076C5.60066 8.50569 5.62161 8.52564 5.64715 8.53758C5.67269 8.54951 5.70143 8.55278 5.729 8.54688L7.09325 8.25588C7.09932 8.25025 7.10337 8.24278 7.10475 8.23463L7.135 8.26588L6.67 8.72713H6.6475L3.88675 11.5096L4.7725 12.3626C4.79724 12.385 4.82849 12.3989 4.86169 12.4023C4.89489 12.4056 4.92829 12.3983 4.957 12.3813C4.98595 12.3644 5.00914 12.3392 5.02352 12.309C5.03791 12.2787 5.04282 12.2448 5.03763 12.2118L4.90825 11.6493C4.90012 11.638 4.89574 11.6244 4.89574 11.6105C4.89574 11.5966 4.90012 11.583 4.90825 11.5718C6.11751 10.9952 7.24205 10.2557 8.2505 9.37388L7.68363 8.80675L7.69438 8.805L7.35813 8.46888L7.37963 8.44713L7.40238 8.47038L7.39063 8.48175L8.28275 9.39338V9.393C9.99275 7.77375 11.2065 6.47213 10.8909 5.59613C10.8765 5.49137 10.8278 5.39432 10.7525 5.32013V5.32063C10.7333 5.30645 10.7131 5.29367 10.6921 5.28238C10.6818 5.27138 10.6726 5.26013 10.6616 5.24938L10.6534 5.25763C10.6302 5.24359 10.6058 5.23146 10.5806 5.22138L10.6168 5.18488C10.3923 4.98488 10.2068 4.81938 9.92925 4.81863V4.81888ZM3.8675 11.5263L3.22113 12.1728V12.1733C3.19793 12.1876 3.1799 12.209 3.16964 12.2343C3.15937 12.2595 3.1574 12.2874 3.164 12.3139C3.17038 12.3403 3.18494 12.3641 3.20561 12.3818C3.22628 12.3995 3.252 12.4103 3.27913 12.4125L4.86313 12.5219L3.8675 11.5263Z" fill="white"/>
<path d="M11.4937 2.91375C11.131 2.91334 10.7826 3.05567 10.5239 3.31C10.3398 3.49839 10.2138 3.73571 10.1609 3.9937C10.1079 4.25169 10.1302 4.51946 10.2251 4.76513C9.6325 4.51138 8.83075 4.95388 6.33687 7.44725C6.33514 7.45109 6.33359 7.45501 6.33225 7.459C6.32712 7.46125 6.32215 7.46384 6.31738 7.46675L5.52875 8.26225C5.49095 8.29935 5.46612 8.34765 5.45795 8.39998C5.44977 8.45232 5.45869 8.50589 5.48338 8.55275C5.50539 8.58984 5.53659 8.62065 5.57396 8.64219C5.61133 8.66373 5.65362 8.67529 5.69675 8.67575L5.73588 8.65038L6.78888 8.42575L6.28512 8.93413C6.28227 8.94083 6.28002 8.94778 6.27838 8.95488L3.80962 11.4298C3.79979 11.438 3.79164 11.4481 3.78563 11.4595L3.14987 12.0958C3.11823 12.1292 3.0966 12.1709 3.08746 12.216C3.07831 12.2612 3.082 12.308 3.09813 12.3511C3.11476 12.394 3.14289 12.4314 3.1794 12.4593C3.21592 12.4872 3.25942 12.5045 3.30513 12.5093L4.88237 12.6193C4.90933 12.6099 4.93226 12.5916 4.94737 12.5674C4.96086 12.5485 4.96811 12.5259 4.96811 12.5027C4.96811 12.4795 4.96086 12.4569 4.94737 12.438L4.94413 12.4349C4.97825 12.4171 5.00827 12.3924 5.03225 12.3624C5.05756 12.3295 5.07524 12.2914 5.08401 12.2508C5.09279 12.2103 5.09245 12.1683 5.083 12.1279L4.96 11.6045C6.14007 11.0406 7.24573 10.3326 8.25175 9.49688C8.26146 9.50254 8.27188 9.50687 8.28275 9.50975C8.3145 9.50738 8.34425 9.49375 8.36675 9.47125C10.0605 7.8675 11.0561 6.7685 11.0561 5.896C11.0599 5.77497 11.0416 5.65426 11.0022 5.53975C11.1549 5.60293 11.3177 5.63808 11.4829 5.6435L11.481 5.644C11.7085 5.63714 11.9309 5.57493 12.1289 5.46275L12.1294 5.46288C12.155 5.47049 12.1826 5.46803 12.2065 5.456C12.3021 5.39972 12.3892 5.3302 12.4653 5.2495C12.5942 5.12303 12.6966 4.97214 12.7665 4.80563C12.8364 4.63912 12.8725 4.46034 12.8725 4.27975C12.8725 4.09916 12.8365 3.92039 12.7666 3.75389C12.6967 3.58738 12.5943 3.43648 12.4654 3.31C12.4607 3.30585 12.4558 3.30205 12.4506 3.29863C12.1933 3.05161 11.8503 2.91374 11.4936 2.91388L11.4937 2.91375ZM11.4829 3.13525C11.7355 3.13676 11.9807 3.22077 12.1811 3.3745L11.1726 4.38913C11.1692 4.39301 11.166 4.3971 11.1631 4.40138C11.1449 4.41977 11.1343 4.44429 11.1333 4.47013C11.1332 4.48574 11.1367 4.50116 11.1435 4.51522C11.1503 4.52929 11.1602 4.54165 11.1724 4.55138H11.1726L11.9351 5.31388C11.7264 5.40496 11.4951 5.43086 11.2714 5.38819C11.0477 5.34552 10.8421 5.23627 10.6816 5.07475C10.3584 4.74975 10.2646 4.26175 10.4375 3.83838C10.6104 3.41463 11.0225 3.13775 11.4829 3.13525ZM12.3729 3.56425C12.5378 3.76376 12.6277 4.01467 12.627 4.2735C12.6265 4.57672 12.5057 4.86735 12.291 5.0815C12.248 5.12199 12.2021 5.15938 12.1538 5.19338L11.5384 4.5875L11.418 4.46713L11.4511 4.434L12.3728 3.564L12.3729 3.56425ZM12.3271 4.08838C12.3045 4.08126 12.2801 4.08264 12.2584 4.09225C12.2369 4.10334 12.2207 4.12249 12.2134 4.1455C12.2098 4.15698 12.2084 4.16907 12.2095 4.18106C12.2106 4.19306 12.214 4.20472 12.2196 4.21538C12.2418 4.26209 12.2505 4.31404 12.2448 4.36543C12.2392 4.41682 12.2193 4.46562 12.1875 4.50638C12.1794 4.51424 12.173 4.52374 12.1688 4.53426C12.1646 4.54477 12.1626 4.55606 12.1631 4.56738C12.1636 4.59038 12.1719 4.61238 12.1875 4.62888C12.2042 4.63524 12.2226 4.63524 12.2393 4.62888C12.2543 4.63263 12.27 4.6322 12.2849 4.62764C12.2997 4.62308 12.3129 4.61456 12.3232 4.603C12.3765 4.5378 12.4102 4.45887 12.4205 4.37533C12.4307 4.29179 12.4172 4.20704 12.3814 4.13088V4.13138C12.3692 4.11089 12.3499 4.09559 12.3271 4.08838ZM9.9175 4.92875C10.0683 4.9339 10.2135 4.98765 10.3313 5.082C10.2044 5.10029 10.0869 5.15904 9.99613 5.2495L7.14525 8.08763L6.58575 7.52813C8.06425 6.05663 8.96825 5.288 9.53025 5.03613C9.64605 4.96321 9.78068 4.92596 9.9175 4.92875ZM10.4131 5.29875C10.5088 5.29882 10.6006 5.33675 10.6685 5.40425C10.7045 5.43817 10.7329 5.47933 10.7519 5.52503C10.7708 5.57073 10.7798 5.61993 10.7784 5.66938C10.7767 5.71865 10.765 5.76706 10.7438 5.81158C10.7226 5.8561 10.6925 5.89577 10.6552 5.92813L7.624 8.56638L7.29688 8.23925L10.1578 5.40425C10.2256 5.33679 10.3174 5.29879 10.4131 5.29875ZM10.7874 6.136C10.5761 6.97375 9.4565 8.10888 8.289 9.21188L7.81687 8.74025L10.7874 6.136ZM6.42088 7.69338L6.45512 7.72713L6.89425 8.16625L5.6905 8.42375L6.42088 7.69338ZM7.145 8.42338L7.1455 8.42388L7.2915 8.57325L7.29375 8.58375L7.3035 8.58525L7.3345 8.617L7.437 8.722L6.76388 8.8045L7.145 8.42338ZM7.62838 8.93288L8.07563 9.37988C7.08665 10.2022 6.00141 10.9014 4.84375 11.4619C4.80616 11.4798 4.77594 11.5101 4.75824 11.5478C4.74053 11.5855 4.73642 11.6281 4.74662 11.6685L4.876 12.231C4.88077 12.2376 4.88334 12.2455 4.88334 12.2537C4.88334 12.2618 4.88077 12.2698 4.876 12.2764C4.86889 12.2828 4.85968 12.2863 4.85012 12.2863C4.84057 12.2863 4.83136 12.2828 4.82425 12.2764L4.0615 11.5074L6.4125 9.12188L7.62838 8.93288ZM3.88675 11.6754L3.99537 11.7771L4.55688 12.3386L3.30487 12.2576L3.88675 11.6754Z" fill="#F37036"/>
</g>
<defs>
<clipPath id="clip0_9_13">
<rect width="16" height="16" fill="white"/>
</clipPath>
</defs>
</svg>
