<svg width="16" height="16" viewBox="0 0 16 16" fill="none" xmlns="http://www.w3.org/2000/svg">
<path d="M8 9.425C8.78701 9.425 9.425 8.78701 9.425 8C9.425 7.213 8.78701 6.575 8 6.575C7.213 6.575 6.575 7.213 6.575 8C6.575 8.78701 7.213 9.425 8 9.425Z" fill="#61DAFB"/>
<path d="M13.4125 5.65C13.1375 5.55 12.85 5.45 12.55 5.3625C12.625 5.0625 12.6875 4.7625 12.7375 4.475C13 2.825 12.7125 1.6625 11.9125 1.2125C11.675 1.075 11.4125 1.0125 11.1125 1.0125C10.2375 1.0125 9.125 1.6625 8 2.75C6.875 1.6625 5.7625 1.0125 4.8875 1.0125C4.5875 1.0125 4.325 1.075 4.0875 1.2125C3.2875 1.675 3 2.8375 3.2625 4.475C3.3125 4.7625 3.375 5.0625 3.45 5.3625C3.15 5.45 2.8625 5.5375 2.5875 5.65C1.025 6.25 0.175003 7.075 0.175003 8C0.175003 8.925 1.0375 9.75 2.5875 10.35C2.8625 10.45 3.15 10.55 3.45 10.6375C3.375 10.9375 3.3125 11.2375 3.2625 11.525C3 13.175 3.2875 14.3375 4.0875 14.7875C4.325 14.925 4.5875 14.9875 4.8875 14.9875C5.775 14.9875 6.8875 14.3375 8 13.25C9.125 14.3375 10.2375 14.9875 11.1125 14.9875C11.4125 14.9875 11.675 14.925 11.9125 14.7875C12.7125 14.325 13 13.1625 12.7375 11.525C12.6875 11.2375 12.625 10.9375 12.55 10.6375C12.85 10.55 13.1375 10.4625 13.4125 10.35C14.975 9.75 15.825 8.925 15.825 8C15.825 7.075 14.975 6.25 13.4125 5.65ZM11.5625 1.8375C12.075 2.1375 12.25 3.0625 12.0375 4.375C12 4.6375 11.9375 4.9125 11.8625 5.2C11.2125 5.05 10.525 4.95 9.8 4.8875C9.375 4.2875 8.9375 3.75 8.5 3.2625C9.425 2.35 10.3625 1.725 11.125 1.725C11.2875 1.725 11.4375 1.7625 11.5625 1.8375ZM10.1625 9.25C9.9375 9.65 9.675 10.05 9.4 10.45C8.9375 10.4875 8.475 10.5 8 10.5C7.5125 10.5 7.05 10.4875 6.6 10.45C6.325 10.05 6.075 9.65 5.85 9.25C5.6125 8.8375 5.3875 8.4125 5.1875 8C5.3875 7.5875 5.6125 7.1625 5.85 6.75C6.075 6.35 6.3375 5.95 6.6125 5.55C7.075 5.5125 7.5375 5.5 8.0125 5.5C8.5 5.5 8.9625 5.5125 9.4125 5.55C9.6875 5.95 9.9375 6.35 10.1625 6.75C10.4 7.1625 10.625 7.5875 10.825 8C10.6125 8.4125 10.4 8.825 10.1625 9.25ZM11.2 8.8375C11.3875 9.275 11.5375 9.7 11.675 10.125C11.25 10.225 10.8 10.3 10.325 10.3625C10.475 10.125 10.6375 9.875 10.775 9.6125C10.925 9.35 11.0625 9.0875 11.2 8.8375ZM8 12.225C7.7 11.9 7.4125 11.55 7.1375 11.1875C7.425 11.2 7.7125 11.2125 8 11.2125C8.2875 11.2125 8.575 11.2 8.8625 11.1875C8.5875 11.55 8.3 11.9 8 12.225ZM5.675 10.35C5.2 10.2875 4.75 10.2125 4.325 10.1125C4.4625 9.7 4.6125 9.2625 4.8 8.825C4.9375 9.075 5.075 9.3375 5.225 9.5875C5.375 9.8625 5.525 10.1 5.675 10.35ZM4.8 7.1625C4.6125 6.725 4.4625 6.3 4.325 5.875C4.75 5.775 5.2 5.7 5.675 5.6375C5.525 5.875 5.3625 6.125 5.225 6.3875C5.075 6.65 4.9375 6.9125 4.8 7.1625ZM8 3.775C8.3 4.1 8.5875 4.45 8.8625 4.8125C8.575 4.8 8.2875 4.7875 8 4.7875C7.7125 4.7875 7.425 4.8 7.1375 4.8125C7.4125 4.45 7.7 4.1 8 3.775ZM10.775 6.4L10.325 5.65C10.8 5.7125 11.25 5.7875 11.675 5.8875C11.5375 6.3 11.3875 6.7375 11.2 7.175C11.0625 6.9125 10.925 6.65 10.775 6.4ZM3.9625 4.375C3.75 3.0625 3.925 2.1375 4.4375 1.8375C4.5625 1.7625 4.7125 1.725 4.875 1.725C5.625 1.725 6.5625 2.3375 7.5 3.2625C7.0625 3.7375 6.625 4.2875 6.2 4.8875C5.475 4.95 4.7875 5.0625 4.1375 5.2C4.0625 4.9125 4.0125 4.6375 3.9625 4.375ZM0.875003 8C0.875003 7.4125 1.5875 6.7875 2.8375 6.325C3.0875 6.225 3.3625 6.1375 3.6375 6.0625C3.8375 6.6875 4.0875 7.35 4.3875 8.0125C4.0875 8.675 3.825 9.325 3.6375 9.95C1.9125 9.45 0.875003 8.7 0.875003 8ZM4.4375 14.1625C3.925 13.8625 3.75 12.9375 3.9625 11.625C4 11.3625 4.0625 11.0875 4.1375 10.8C4.7875 10.95 5.475 11.05 6.2 11.1125C6.625 11.7125 7.0625 12.25 7.5 12.7375C6.575 13.65 5.6375 14.275 4.875 14.275C4.7125 14.275 4.5625 14.2375 4.4375 14.1625ZM12.0375 11.625C12.25 12.9375 12.075 13.8625 11.5625 14.1625C11.4375 14.2375 11.2875 14.275 11.125 14.275C10.375 14.275 9.4375 13.6625 8.5 12.7375C8.9375 12.2625 9.375 11.7125 9.8 11.1125C10.525 11.05 11.2125 10.9375 11.8625 10.8C11.9375 11.0875 11.9875 11.3625 12.0375 11.625ZM13.1625 9.675C12.9125 9.775 12.6375 9.8625 12.3625 9.9375C12.1625 9.3125 11.9125 8.65 11.6125 7.9875C11.9125 7.325 12.175 6.675 12.3625 6.05C14.0875 6.55 15.125 7.3 15.125 8C15.125 8.5875 14.4 9.2125 13.1625 9.675Z" fill="#61DAFB"/>
</svg>
