<svg width="16" height="16" viewBox="0 0 16 16" fill="none" xmlns="http://www.w3.org/2000/svg">
<g clip-path="url(#clip0_13_124)">
<path d="M3.40688 10.0899C3.40688 11.0061 2.65963 11.7545 1.74325 11.7545C0.826876 11.7545 0.0787506 11.0061 0.0787506 10.0899C0.0787506 9.17363 0.827126 8.42525 1.74338 8.42525H3.407L3.40688 10.0899ZM4.2455 10.0899C4.2455 9.17363 4.99388 8.42525 5.91013 8.42525C6.82638 8.42525 7.57475 9.1735 7.57475 10.0899V14.2568C7.57475 15.173 6.8265 15.9214 5.91013 15.9214C4.99388 15.9214 4.2455 15.173 4.2455 14.2568V10.0899Z" fill="#DE1C59"/>
<path d="M5.91013 3.40688C4.99388 3.40688 4.2455 2.65963 4.2455 1.74325C4.2455 0.826876 4.99388 0.0787506 5.91013 0.0787506C6.82638 0.0787506 7.57475 0.827126 7.57475 1.74338V3.407L5.91013 3.40688ZM5.91013 4.2455C6.82638 4.2455 7.57475 4.99388 7.57475 5.91013C7.57475 6.82638 6.8265 7.57475 5.91013 7.57475H1.74325C0.827001 7.57475 0.0787506 6.8265 0.0787506 5.91013C0.0787506 4.99388 0.827126 4.2455 1.74338 4.2455H5.91013Z" fill="#35C5F0"/>
<path d="M12.5931 5.91013C12.5931 4.99388 13.3404 4.2455 14.2567 4.2455C15.1731 4.2455 15.9214 4.99388 15.9214 5.91013C15.9214 6.82638 15.173 7.57475 14.2567 7.57475H12.5931V5.91013ZM11.7545 5.91013C11.7545 6.82638 11.0061 7.57475 10.0899 7.57475C9.17362 7.57475 8.42525 6.8265 8.42525 5.91013V1.74325C8.42525 0.827001 9.1735 0.0787506 10.0899 0.0787506C11.0061 0.0787506 11.7545 0.827126 11.7545 1.74338V5.91013Z" fill="#2EB57D"/>
<path d="M10.0899 12.5931C11.0061 12.5931 11.7545 13.3404 11.7545 14.2568C11.7545 15.1731 11.0061 15.9214 10.0899 15.9214C9.17362 15.9214 8.42525 15.173 8.42525 14.2568V12.5931H10.0899ZM10.0899 11.7545C9.17362 11.7545 8.42525 11.0061 8.42525 10.0899C8.42525 9.17363 9.1735 8.42525 10.0899 8.42525H14.2567C15.173 8.42525 15.9214 9.1735 15.9214 10.0899C15.9214 11.0061 15.173 11.7545 14.2567 11.7545H10.0899Z" fill="#EBB02E"/>
</g>
<defs>
<clipPath id="clip0_13_124">
<rect width="16" height="16" fill="white"/>
</clipPath>
</defs>
</svg>
