<svg width="16" height="16" viewBox="0 0 16 16" fill="none" xmlns="http://www.w3.org/2000/svg">
<g clip-path="url(#clip0_9_17)">
<path d="M13.8038 2.117C12.3191 -0.0095005 9.38625 -0.639751 7.26625 0.711999L3.54225 3.087C3.03833 3.40318 2.60594 3.82105 2.27274 4.31388C1.93955 4.80672 1.71289 5.36368 1.60725 5.94912C1.56016 6.21187 1.53619 6.47985 1.53575 6.74862C1.53802 7.47747 1.71655 8.19496 2.05612 8.83987C1.73779 9.32395 1.52057 9.86737 1.4175 10.4375C1.31188 11.0335 1.32667 11.6513 1.46062 12.239C1.59473 12.8306 1.84545 13.3895 2.19812 13.883C3.68287 16.0092 6.62238 16.6396 8.73563 15.288L12.4559 12.9129C12.9595 12.5963 13.3913 12.1779 13.7236 11.6845C14.056 11.1912 14.2815 10.6338 14.3856 10.0481C14.4335 9.78474 14.4574 9.51757 14.4571 9.24987C14.4562 8.52243 14.2799 7.80594 13.9431 7.16112C14.2614 6.67749 14.4788 6.13455 14.5821 5.56487C14.6282 5.30112 14.6518 5.03425 14.6524 4.76662C14.6527 3.81731 14.356 2.89168 13.804 2.11937L13.8038 2.117Z" fill="#FF3E00"/>
<path d="M6.90238 14.0827C6.65776 14.1458 6.4083 14.1776 6.15813 14.1777C5.68042 14.1777 5.20985 14.0618 4.78674 13.84C4.36364 13.6182 4.0006 13.2972 3.72875 12.9044C3.39682 12.4397 3.21849 11.8829 3.21875 11.3119C3.21896 11.1509 3.23291 10.9903 3.26038 10.8327C3.28275 10.7142 3.31284 10.5979 3.35038 10.485L3.4205 10.2715L3.6105 10.416C4.05152 10.7397 4.54426 10.9863 5.06775 11.1452L5.20575 11.1869L5.19275 11.3249V11.3965C5.19249 11.5692 5.24615 11.7376 5.34625 11.8782C5.42714 11.998 5.53604 12.0962 5.6635 12.1642C5.79402 12.2331 5.93498 12.2687 6.0775 12.2689C6.15273 12.2692 6.22776 12.2596 6.30125 12.2402C6.38102 12.2194 6.45809 12.1856 6.53038 12.14L10.2504 9.75325C10.3619 9.68241 10.4537 9.58448 10.5172 9.4686C10.5807 9.35271 10.6137 9.22263 10.6134 9.0905C10.6123 8.91782 10.5572 8.74981 10.4559 8.61C10.3738 8.49181 10.2643 8.39523 10.1368 8.3285C10.0062 8.26111 9.86547 8.22665 9.72338 8.22725C9.64814 8.22698 9.57311 8.23662 9.49963 8.256C9.42018 8.27638 9.34352 8.31009 9.27188 8.35612L7.85363 9.26237C7.61494 9.41275 7.36072 9.52439 7.09763 9.59437C6.51175 9.74693 5.89316 9.71585 5.32552 9.50534C4.75789 9.29483 4.26861 8.91505 3.92388 8.41737C3.59224 7.95257 3.41395 7.39586 3.41388 6.82487C3.41413 6.66425 3.42813 6.504 3.4555 6.34575C3.51911 5.99388 3.65513 5.65906 3.85495 5.36252C4.05476 5.06599 4.31401 4.8142 4.61625 4.62312L8.34025 2.24937C8.57393 2.10064 8.82883 1.98824 9.09625 1.916C9.33943 1.85373 9.58947 1.82224 9.8405 1.82225C10.3192 1.82124 10.791 1.93634 11.2154 2.15769C11.6399 2.37903 12.0043 2.70002 12.2775 3.09312C12.6071 3.55903 12.7832 4.11616 12.7811 4.68687C12.7809 4.84833 12.7669 5.00934 12.7394 5.16737C12.7171 5.2859 12.6871 5.40214 12.6496 5.515L12.5794 5.7285L12.3894 5.58925C11.9487 5.26489 11.4559 5.01825 10.9321 4.86L10.7941 4.81712L10.8071 4.679V4.6075C10.8071 4.43447 10.7535 4.26569 10.6536 4.12437C10.5717 4.00619 10.4623 3.90967 10.3349 3.84312C10.2046 3.77574 10.0642 3.74115 9.92238 3.7415C9.84782 3.7431 9.77364 3.75446 9.70113 3.77537C9.62124 3.79544 9.54416 3.8292 9.47225 3.87562L5.74813 6.24937C5.65982 6.30451 5.58174 6.38063 5.51863 6.47312C5.45973 6.55948 5.4185 6.66125 5.39825 6.77025C5.38906 6.81552 5.38337 6.86172 5.38125 6.90825C5.38116 7.08049 5.43482 7.24846 5.53475 7.38875C5.61661 7.50692 5.72596 7.60344 5.85338 7.67C5.9837 7.73741 6.12413 7.77195 6.266 7.7715C6.34123 7.77176 6.41626 7.76212 6.48975 7.74275C6.56966 7.72251 6.6468 7.6888 6.71888 7.64262L8.13975 6.73112C8.37834 6.58049 8.63259 6.46883 8.89575 6.39912C9.14038 6.33615 9.38983 6.30431 9.64 6.30412C10.1178 6.30405 10.5885 6.41974 11.0118 6.64128C11.4351 6.86282 11.7985 7.18363 12.0708 7.57625C12.2831 7.87381 12.4338 8.21081 12.514 8.56745C12.5942 8.9241 12.6023 9.29318 12.5379 9.653C12.4746 10.005 12.3388 10.34 12.1389 10.6365C11.9391 10.9331 11.6796 11.1848 11.3771 11.3756L7.65963 13.7494C7.42069 13.9005 7.16594 14.0126 6.90238 14.0827Z" fill="white"/>
</g>
<defs>
<clipPath id="clip0_9_17">
<rect width="16" height="16" fill="white"/>
</clipPath>
</defs>
</svg>
