<svg width="16" height="16" viewBox="0 0 16 16" fill="none" xmlns="http://www.w3.org/2000/svg">
<g clip-path="url(#clip0_13_129)">
<path d="M8.0005 3.20026C5.86712 3.20026 4.53425 4.26651 4.0005 6.39988C4.80025 5.33351 5.73387 4.93363 6.80025 5.20026C7.40912 5.35201 7.84425 5.79351 8.32613 6.28276C9.11038 7.07863 10.0181 8.00001 12.0005 8.00001C14.1337 8.00001 15.4667 6.93363 16.0005 4.79976C15.2005 5.86667 14.2672 6.26676 13.2006 6.00001C12.5919 5.84813 12.1573 5.40676 11.6748 4.91751C10.891 4.12163 9.9835 3.20026 8.0005 3.20026ZM4.0005 8.00001C1.86725 8.00001 0.53425 9.06638 0.000499725 11.2003C0.800416 10.1333 1.73367 9.73326 2.80025 10C3.40912 10.1519 3.84425 10.5933 4.32612 11.0825C5.11037 11.8784 6.01812 12.7998 8.0005 12.7998C10.1337 12.7998 11.4667 11.7335 12.0005 9.60013C11.2005 10.6665 10.2672 11.0664 9.20063 10.7998C8.59188 10.648 8.15725 10.2065 7.67475 9.71726C6.891 8.92138 5.9835 8.00001 4.0005 8.00001Z" fill="#38BDF8"/>
</g>
<defs>
<clipPath id="clip0_13_129">
<rect width="16" height="16" fill="white"/>
</clipPath>
</defs>
</svg>
