<svg width="16" height="16" viewBox="0 0 16 16" fill="none" xmlns="http://www.w3.org/2000/svg">
<g clip-path="url(#clip0_12_115)">
<path d="M2.83376 5.875H15.2925V15.0837H2.83376V5.875Z" fill="white"/>
<path d="M0.1875 7.98875V15.8013H15.8125V0.176254H0.1875V7.98875ZM12.7788 7.36375C13.153 7.4506 13.4931 7.64633 13.7563 7.92625C13.9011 8.07708 14.027 8.24498 14.1313 8.42625C14.1313 8.44625 13.4563 8.9025 13.045 9.1575C13.03 9.1675 12.97 9.1025 12.9038 9.00375C12.8287 8.87421 12.722 8.7658 12.5937 8.68864C12.4654 8.61148 12.3196 8.56809 12.17 8.5625C11.6963 8.53 11.3913 8.77875 11.3938 9.1875C11.39 9.28926 11.4132 9.3902 11.4613 9.48C11.565 9.69625 11.7588 9.825 12.3663 10.0875C13.485 10.5688 13.9637 10.8863 14.2612 11.3375C14.5937 11.8375 14.6675 12.645 14.4425 13.2425C14.1925 13.8925 13.58 14.3338 12.7137 14.48C12.3181 14.5253 11.9184 14.5211 11.5238 14.4675C10.919 14.3678 10.3619 14.0774 9.93375 13.6388C9.79 13.48 9.51 13.0663 9.5275 13.0363C9.57304 13.0022 9.6211 12.9717 9.67125 12.945L10.25 12.625L10.6987 12.365L10.7925 12.5038C10.9508 12.73 11.1521 12.9229 11.385 13.0713C11.885 13.3338 12.5675 13.2975 12.905 12.9938C13.0183 12.8824 13.089 12.7349 13.1048 12.5769C13.1205 12.4188 13.0804 12.2602 12.9913 12.1288C12.8663 11.955 12.6162 11.8088 11.9175 11.5038C11.1112 11.1563 10.7637 10.9413 10.4462 10.5988C10.2481 10.3727 10.1018 10.1061 10.0175 9.8175C9.95469 9.48781 9.94541 9.15015 9.99 8.8175C10.1562 8.03875 10.74 7.495 11.5925 7.33375C11.9873 7.28498 12.3872 7.29594 12.7788 7.36625V7.36375ZM9.11125 8.01875V8.65875H7.0825V14.4375H5.64375V8.6575H3.61V8.0325C3.60362 7.81697 3.60863 7.60126 3.625 7.38625C3.635 7.375 4.875 7.375 6.375 7.375H9.10375L9.11125 8.01875Z" fill="#007ACC"/>
</g>
<defs>
<clipPath id="clip0_12_115">
<rect width="16" height="16" fill="white"/>
</clipPath>
</defs>
</svg>
