<svg width="16" height="16" viewBox="0 0 16 16" fill="none" xmlns="http://www.w3.org/2000/svg">
<path fill-rule="evenodd" clip-rule="evenodd" d="M8 0C3.5888 0 0 3.5888 0 8C0 12.4112 3.5888 16 8 16C12.4112 16 16 12.4112 16 8C16 3.5888 12.4112 0 8 0ZM8 15.6336C3.7912 15.6336 0.3672 12.2088 0.3672 8C0.3672 3.7912 3.7912 0.3664 8 0.3664C12.2088 0.3664 15.6336 3.7904 15.6336 8C15.6336 12.208 12.2096 15.6336 8 15.6336ZM1.1376 8C1.13753 9.28874 1.50028 10.5515 2.18433 11.6437C2.86838 12.7359 3.8461 13.6135 5.0056 14.176L1.7312 5.208C1.33919 6.08657 1.13692 7.03794 1.1376 8ZM12.6336 7.6544C12.6336 6.8064 12.328 6.2192 12.0672 5.7616C11.7192 5.196 11.3928 4.7176 11.3928 4.152C11.3928 3.5216 11.8712 2.9344 12.5448 2.9344C12.5757 2.93493 12.6056 2.9368 12.6344 2.94C11.3707 1.77849 9.71643 1.13456 8 1.136C6.86256 1.1355 5.74287 1.41801 4.74182 1.95806C3.74076 2.49811 2.8898 3.27874 2.2656 4.2296C2.4272 4.2344 2.5792 4.2376 2.708 4.2376C3.4256 4.2376 4.5368 4.1504 4.5368 4.1504C4.9064 4.1288 4.9504 4.672 4.5808 4.716C4.5808 4.716 4.2088 4.76 3.7952 4.7816L6.2944 12.2152L7.796 7.7112L6.7272 4.7816C6.3576 4.76 6.0072 4.716 6.0072 4.716C5.6376 4.6944 5.6808 4.1288 6.0512 4.1504C6.0512 4.1504 7.184 4.2384 7.8584 4.2384C8.576 4.2384 9.6872 4.1504 9.6872 4.1504C10.0576 4.1288 10.1008 4.672 9.7312 4.716C9.7312 4.716 9.3592 4.76 8.9456 4.7816L11.4256 12.1584L12.1112 9.8712C12.4072 8.9216 12.6328 8.24 12.6328 7.6528M8.1208 8.5992L6.0616 14.5832C7.44404 14.9909 8.9198 14.9525 10.2792 14.4736C10.2606 14.443 10.244 14.4112 10.2296 14.3784L8.1208 8.5992ZM14.0224 4.7064C14.0528 4.92507 14.0683 5.16027 14.0688 5.412C14.0688 6.108 13.9384 6.8912 13.5464 7.8704L11.4504 13.9312C12.4887 13.328 13.3504 12.4626 13.9492 11.4217C14.548 10.3808 14.8629 9.20085 14.8624 8C14.8642 6.84917 14.5753 5.71573 14.0224 4.7064Z" fill="black"/>
</svg>
